<?xml version="1.0" encoding="UTF-8" standalone="no"?>
<!-- Created with Inkscape (http://www.inkscape.org/) -->

<svg
   width="152"
   height="24"
   viewBox="0 0 40.216676 6.3500002"
   version="1.1"
   id="svg5"
   inkscape:version="1.1.1 (3bf5ae0d25, 2021-09-20)"
   sodipodi:docname="logowzc.svg"
   xmlns:inkscape="http://www.inkscape.org/namespaces/inkscape"
   xmlns:sodipodi="http://sodipodi.sourceforge.net/DTD/sodipodi-0.dtd"
   xmlns="http://www.w3.org/2000/svg"
   xmlns:svg="http://www.w3.org/2000/svg">
  <sodipodi:namedview
     id="namedview7"
     pagecolor="#ffffff"
     bordercolor="#666666"
     borderopacity="1.0"
     inkscape:pageshadow="2"
     inkscape:pageopacity="0.0"
     inkscape:pagecheckerboard="0"
     inkscape:document-units="px"
     showgrid="false"
     units="px"
     inkscape:showpageshadow="false"
     height="24px"
     showborder="true"
     inkscape:zoom="1.42"
     inkscape:cx="75.704225"
     inkscape:cy="20.774648"
     inkscape:window-width="1366"
     inkscape:window-height="745"
     inkscape:window-x="-8"
     inkscape:window-y="-8"
     inkscape:window-maximized="1"
     inkscape:current-layer="layer1" />
  <defs
     id="defs2" />
  <g
     inkscape:label="Layer 1"
     inkscape:groupmode="layer"
     id="layer1">
    <path
       id="rect890"
       style="fill:#ffffff;stroke:#c12e2a;stroke-width:0.264583"
       d="M 0.26458335,0.26458332 H 8.0433333 V 6.085417 H 0.26458335 Z" />
    <path
       style="fill:none;stroke:#003875;stroke-width:0.264583px;stroke-linecap:butt;stroke-linejoin:miter;stroke-opacity:1"
       d="M 0.26458334,0.26458332 C 4.0216668,3.1220834 4.1275001,3.1220834 4.1275001,3.1220834 L 8.0433333,0.26458332"
       id="path21020" />
    <path
       id="rect21090"
       style="fill:#f2f2f2;stroke:#f2f2f2;stroke-width:0.264583"
       d="M 5.1371846,3.96875 H 7.408334 V 5.450417 H 5.1371846 Z" />
    <path
       id="rect15155"
       style="fill:#ffffff;stroke:#ffffff;stroke-width:0.264583"
       d="M 9.2075005,0.21166724 H 40.057919 V 6.1912505 H 9.2075005 Z" />
    <g
       aria-label="ZIP"
       id="text4569"
       style="font-weight:900;font-size:1.05833px;line-height:1.25;font-family:Arial;-inkscape-font-specification:'Arial Heavy';fill:#c12e2a;stroke-width:0.264583">
      <path
         d="M 5.4072454,4.3753428 H 6.0697352 V 4.5267543 L 5.6449562,4.9701367 H 6.0852381 V 5.1329169 H 5.3664211 V 4.9758211 L 5.7865492,4.5370895 H 5.4072454 Z"
         id="path23079" />
      <path
         d="M 6.1999594,4.3753428 H 6.4345697 V 5.1329169 H 6.1999594 Z"
         id="path23081" />
      <path
         d="m 6.6014841,4.3753428 h 0.3891223 q 0.1271236,0 0.1901687,0.060461 0.063562,0.060461 0.063562,0.172082 0,0.1147213 -0.069246,0.1793167 -0.068729,0.064595 -0.2103224,0.064595 H 6.8366111 v 0.2811189 h -0.235127 z m 0.235127,0.3229767 h 0.057361 q 0.067696,0 0.095084,-0.023254 0.027388,-0.023771 0.027388,-0.060461 0,-0.035657 -0.023771,-0.060461 -0.023771,-0.024805 -0.0894,-0.024805 h -0.066662 z"
         id="path23083" />
    </g>
    <g
       aria-label="ZIPCODE"
       id="text8735"
       style="font-weight:900;font-size:5.82083px;line-height:1.25;font-family:Arial;-inkscape-font-specification:'Arial Heavy';stroke-width:0.264583">
      <path
         d="M 10.784587,1.0940043 H 14.42829 V 1.9267695 L 12.092,4.3653789 h 2.421556 V 5.2606726 H 10.560053 V 4.3966431 l 2.31071,-2.4130295 h -2.086176 z"
         style="fill:#c12e2a"
         id="path23086" />
      <path
         d="m 15.144525,1.0940043 h 1.29036 v 4.1666683 h -1.29036 z"
         style="fill:#c12e2a"
         id="path23088" />
      <path
         d="m 17.352916,1.0940043 h 2.140178 q 0.699182,0 1.04593,0.3325377 0.349591,0.3325376 0.349591,0.9464533 0,0.6309688 -0.380855,0.9862441 -0.378013,0.3552752 -1.156776,0.3552752 h -0.704866 v 1.546158 h -1.293202 z m 1.293202,1.7763763 h 0.315484 q 0.372329,0 0.522966,-0.1278991 0.150636,-0.1307413 0.150636,-0.3325376 0,-0.196112 -0.130741,-0.3325377 -0.130741,-0.1364257 -0.491701,-0.1364257 h -0.366644 z"
         style="fill:#c12e2a"
         id="path23090" />
      <path
         d="m 24.336207,3.5581935 1.128354,0.3410643 q -0.113688,0.4746477 -0.358118,0.7929744 -0.244429,0.3183266 -0.608231,0.4803321 -0.360959,0.1620055 -0.920873,0.1620055 -0.679287,0 -1.111301,-0.1961119 Q 22.036865,4.9395037 21.724223,4.4421184 21.411581,3.944733 21.411581,3.1688118 q 0,-1.0345615 0.548545,-1.5887909 0.551387,-0.5570716 1.557526,-0.5570716 0.78729,0 1.236358,0.3183266 0.451911,0.3183266 0.67076,0.9777175 l -1.136881,0.252956 Q 24.228203,2.3815219 24.162832,2.2934136 24.054829,2.1456191 23.898508,2.0660374 q -0.156322,-0.079582 -0.349591,-0.079582 -0.437699,0 -0.67076,0.352433 -0.176217,0.2614826 -0.176217,0.8213964 0,0.6934973 0.210323,0.9521377 0.210323,0.2557982 0.591178,0.2557982 0.369487,0 0.557072,-0.2074807 0.190428,-0.2074808 0.275694,-0.6025469 z"
         style="fill:#003875"
         id="path23092" />
      <path
         d="m 25.92784,3.1801806 q 0,-1.0203505 0.56844,-1.5887909 0.568441,-0.5684404 1.583107,-0.5684404 1.040246,0 1.603002,0.5599138 0.562756,0.5570716 0.562756,1.5632111 0,0.730446 -0.247272,1.1994093 -0.244429,0.4661211 -0.71055,0.7276037 -0.463279,0.2586404 -1.156777,0.2586404 -0.704866,0 -1.168145,-0.2245339 Q 26.501965,4.8826597 26.214902,4.3966431 25.92784,3.9106266 25.92784,3.1801806 Z m 1.287517,0.00568 q 0,0.6309689 0.233061,0.9066625 0.235903,0.2756936 0.639495,0.2756936 0.414962,0 0.642338,-0.2700092 0.227376,-0.2700092 0.227376,-0.9691909 0,-0.5883358 -0.238745,-0.858345 -0.235902,-0.2728514 -0.642337,-0.2728514 -0.389382,0 -0.625285,0.2756936 -0.235903,0.2756936 -0.235903,0.9123468 z"
         style="fill:#003875"
         id="path23094" />
      <path
         d="m 30.955695,1.0940043 h 1.912802 q 0.565598,0 0.912346,0.1534789 0.349591,0.1534789 0.576967,0.4405413 0.227377,0.2870625 0.329696,0.6679175 0.102319,0.3808551 0.102319,0.8071854 0,0.6679175 -0.153479,1.0374038 Q 34.485709,4.5671753 34.2157,4.817289 33.945691,5.0645606 33.635891,5.1469845 33.212403,5.2606726 32.868497,5.2606726 h -1.912802 z m 1.287517,0.9436111 v 2.2766039 h 0.315484 q 0.403593,0 0.574125,-0.088108 0.170532,-0.090951 0.267167,-0.3126422 0.09663,-0.224534 0.09663,-0.7247616 0,-0.662233 -0.216007,-0.9066624 -0.216008,-0.2444294 -0.716235,-0.2444294 z"
         style="fill:#003875"
         id="path23096" />
      <path
         d="m 35.463429,1.0940043 h 3.450433 v 0.8896093 h -2.160073 v 0.6622331 h 2.003752 v 0.8498184 h -2.003752 v 0.8213964 h 2.222602 v 0.9436111 h -3.512962 z"
         style="fill:#003875"
         id="path23098" />
    </g>
  </g>
</svg>
